<mxfile host="Electron" agent="Mozilla/5.0 (Windows NT 10.0; Win64; x64) AppleWebKit/537.36 (KHTML, like Gecko) draw.io/24.7.8 Chrome/128.0.6613.36 Electron/32.0.1 Safari/537.36" version="24.7.8">
  <diagram name="Page-1" id="o4iPFlabACkhGWsXo5m4">
    <mxGraphModel dx="1100" dy="859" grid="1" gridSize="5" guides="1" tooltips="1" connect="1" arrows="1" fold="1" page="1" pageScale="1" pageWidth="827" pageHeight="1169" math="1" shadow="0">
      <root>
        <mxCell id="0" />
        <mxCell id="1" parent="0" />
        <mxCell id="o9pzM_4MEvlmnpsvlu2q-87" value="" style="endArrow=none;html=1;rounded=0;entryX=0.523;entryY=0.605;entryDx=0;entryDy=0;exitX=1;exitY=0.5;exitDx=0;exitDy=0;strokeColor=#FF8000;entryPerimeter=0;endFill=0;fontFamily=Go Mono;fontSize=10;" edge="1" parent="1" source="o9pzM_4MEvlmnpsvlu2q-71" target="o9pzM_4MEvlmnpsvlu2q-85">
          <mxGeometry width="50" height="50" relative="1" as="geometry">
            <mxPoint x="435" y="1089" as="sourcePoint" />
            <mxPoint x="455" y="1114" as="targetPoint" />
            <Array as="points">
              <mxPoint x="450" y="1139" />
            </Array>
          </mxGeometry>
        </mxCell>
        <mxCell id="o9pzM_4MEvlmnpsvlu2q-86" value="" style="endArrow=none;html=1;rounded=0;entryX=0.523;entryY=0.396;entryDx=0;entryDy=0;exitX=1;exitY=0.5;exitDx=0;exitDy=0;strokeColor=#FF8000;entryPerimeter=0;endFill=0;fontFamily=Go Mono;fontSize=10;" edge="1" parent="1" source="o9pzM_4MEvlmnpsvlu2q-64" target="o9pzM_4MEvlmnpsvlu2q-85">
          <mxGeometry width="50" height="50" relative="1" as="geometry">
            <mxPoint x="448.5" y="1104" as="sourcePoint" />
            <mxPoint x="491.5" y="1056" as="targetPoint" />
            <Array as="points">
              <mxPoint x="450" y="1084" />
            </Array>
          </mxGeometry>
        </mxCell>
        <mxCell id="o9pzM_4MEvlmnpsvlu2q-75" value="" style="endArrow=classic;html=1;rounded=0;exitX=0.537;exitY=0.421;exitDx=0;exitDy=0;exitPerimeter=0;entryX=0;entryY=0.5;entryDx=0;entryDy=0;endFill=1;strokeColor=#FF8000;fontFamily=Go Mono;fontSize=10;" edge="1" parent="1" source="o9pzM_4MEvlmnpsvlu2q-59" target="o9pzM_4MEvlmnpsvlu2q-71">
          <mxGeometry width="50" height="50" relative="1" as="geometry">
            <mxPoint x="375" y="1104" as="sourcePoint" />
            <mxPoint x="405" y="1104" as="targetPoint" />
          </mxGeometry>
        </mxCell>
        <mxCell id="o9pzM_4MEvlmnpsvlu2q-74" value="" style="endArrow=classic;html=1;rounded=0;entryX=0;entryY=0;entryDx=0;entryDy=0;endFill=1;strokeColor=#FF8000;fontFamily=Go Mono;fontSize=10;" edge="1" parent="1" source="o9pzM_4MEvlmnpsvlu2q-60" target="o9pzM_4MEvlmnpsvlu2q-71">
          <mxGeometry width="50" height="50" relative="1" as="geometry">
            <mxPoint x="375" y="1089" as="sourcePoint" />
            <mxPoint x="415" y="1089" as="targetPoint" />
          </mxGeometry>
        </mxCell>
        <mxCell id="o9pzM_4MEvlmnpsvlu2q-68" value="" style="endArrow=classic;html=1;rounded=0;entryX=0;entryY=1;entryDx=0;entryDy=0;exitX=0.569;exitY=0.445;exitDx=0;exitDy=0;exitPerimeter=0;strokeColor=#FF8000;fontFamily=Go Mono;fontSize=10;" edge="1" parent="1" source="o9pzM_4MEvlmnpsvlu2q-59" target="o9pzM_4MEvlmnpsvlu2q-64">
          <mxGeometry width="50" height="50" relative="1" as="geometry">
            <mxPoint x="345" y="1129" as="sourcePoint" />
            <mxPoint x="395" y="1079" as="targetPoint" />
          </mxGeometry>
        </mxCell>
        <mxCell id="o9pzM_4MEvlmnpsvlu2q-69" value="" style="endArrow=classic;html=1;rounded=0;exitX=0.626;exitY=0.598;exitDx=0;exitDy=0;exitPerimeter=0;entryX=0;entryY=0.5;entryDx=0;entryDy=0;endFill=1;strokeColor=#FF8000;fontFamily=Go Mono;fontSize=10;" edge="1" parent="1" source="o9pzM_4MEvlmnpsvlu2q-60" target="o9pzM_4MEvlmnpsvlu2q-64">
          <mxGeometry width="50" height="50" relative="1" as="geometry">
            <mxPoint x="345" y="1129" as="sourcePoint" />
            <mxPoint x="395" y="1079" as="targetPoint" />
          </mxGeometry>
        </mxCell>
        <mxCell id="iWI6JiuLFlBZr3hvlfpt-4" value="Impact Noise" style="rounded=0;whiteSpace=wrap;html=1;fontFamily=Go Mono;fontSize=10;" parent="1" vertex="1">
          <mxGeometry x="40" y="49" width="120" height="30" as="geometry" />
        </mxCell>
        <mxCell id="a6dJDQt0KXZhfJ8KA_fV-15" style="edgeStyle=orthogonalEdgeStyle;rounded=0;orthogonalLoop=1;jettySize=auto;html=1;exitX=1;exitY=0.5;exitDx=0;exitDy=0;entryX=0.5;entryY=1;entryDx=0;entryDy=0;fontFamily=Go Mono;fontSize=10;" parent="1" source="iWI6JiuLFlBZr3hvlfpt-5" target="iWI6JiuLFlBZr3hvlfpt-9" edge="1">
          <mxGeometry relative="1" as="geometry" />
        </mxCell>
        <mxCell id="iWI6JiuLFlBZr3hvlfpt-5" value="Closing Noise" style="rounded=0;whiteSpace=wrap;html=1;fontFamily=Go Mono;fontSize=10;" parent="1" vertex="1">
          <mxGeometry x="40" y="129" width="120" height="30" as="geometry" />
        </mxCell>
        <mxCell id="iWI6JiuLFlBZr3hvlfpt-6" value="Half Closed Noise" style="rounded=0;whiteSpace=wrap;html=1;fontFamily=Go Mono;fontSize=10;" parent="1" vertex="1">
          <mxGeometry x="40" y="89" width="120" height="30" as="geometry" />
        </mxCell>
        <mxCell id="iWI6JiuLFlBZr3hvlfpt-7" value="Allpass Loop 1" style="rounded=0;whiteSpace=wrap;html=1;fontFamily=Go Mono;fontSize=10;" parent="1" vertex="1">
          <mxGeometry x="240" y="89" width="100" height="30" as="geometry" />
        </mxCell>
        <mxCell id="iWI6JiuLFlBZr3hvlfpt-8" value="Allpass Loop 2" style="rounded=0;whiteSpace=wrap;html=1;fontFamily=Go Mono;fontSize=10;" parent="1" vertex="1">
          <mxGeometry x="370" y="89" width="100" height="30" as="geometry" />
        </mxCell>
        <mxCell id="iWI6JiuLFlBZr3hvlfpt-12" value="" style="edgeStyle=orthogonalEdgeStyle;rounded=0;orthogonalLoop=1;jettySize=auto;html=1;fontFamily=Go Mono;fontSize=10;" parent="1" source="iWI6JiuLFlBZr3hvlfpt-9" target="iWI6JiuLFlBZr3hvlfpt-7" edge="1">
          <mxGeometry relative="1" as="geometry" />
        </mxCell>
        <mxCell id="iWI6JiuLFlBZr3hvlfpt-10" value="" style="endArrow=classic;html=1;rounded=0;exitX=1;exitY=0.5;exitDx=0;exitDy=0;entryX=0;entryY=0.5;entryDx=0;entryDy=0;fontFamily=Go Mono;fontSize=10;" parent="1" source="iWI6JiuLFlBZr3hvlfpt-6" target="iWI6JiuLFlBZr3hvlfpt-9" edge="1">
          <mxGeometry width="50" height="50" relative="1" as="geometry">
            <mxPoint x="250" y="259" as="sourcePoint" />
            <mxPoint x="300" y="209" as="targetPoint" />
          </mxGeometry>
        </mxCell>
        <mxCell id="iWI6JiuLFlBZr3hvlfpt-11" value="" style="endArrow=classic;html=1;rounded=0;exitX=1;exitY=0.5;exitDx=0;exitDy=0;entryX=0.5;entryY=0;entryDx=0;entryDy=0;fontFamily=Go Mono;fontSize=10;" parent="1" source="iWI6JiuLFlBZr3hvlfpt-4" target="iWI6JiuLFlBZr3hvlfpt-9" edge="1">
          <mxGeometry width="50" height="50" relative="1" as="geometry">
            <mxPoint x="170" y="114" as="sourcePoint" />
            <mxPoint x="200" y="114" as="targetPoint" />
            <Array as="points">
              <mxPoint x="200" y="64" />
            </Array>
          </mxGeometry>
        </mxCell>
        <mxCell id="iWI6JiuLFlBZr3hvlfpt-17" value="" style="group;fontFamily=Go Mono;fontSize=10;" parent="1" vertex="1" connectable="0">
          <mxGeometry x="190" y="94" width="20" height="20" as="geometry" />
        </mxCell>
        <mxCell id="iWI6JiuLFlBZr3hvlfpt-9" value="" style="ellipse;whiteSpace=wrap;html=1;aspect=fixed;fontFamily=Go Mono;fontSize=10;" parent="iWI6JiuLFlBZr3hvlfpt-17" vertex="1">
          <mxGeometry width="20" height="20" as="geometry" />
        </mxCell>
        <mxCell id="iWI6JiuLFlBZr3hvlfpt-15" value="" style="endArrow=none;html=1;rounded=0;fontFamily=Go Mono;fontSize=10;" parent="iWI6JiuLFlBZr3hvlfpt-17" edge="1">
          <mxGeometry width="50" height="50" relative="1" as="geometry">
            <mxPoint x="5" y="10" as="sourcePoint" />
            <mxPoint x="15" y="10" as="targetPoint" />
          </mxGeometry>
        </mxCell>
        <mxCell id="iWI6JiuLFlBZr3hvlfpt-16" value="" style="endArrow=none;html=1;rounded=0;fontFamily=Go Mono;fontSize=10;" parent="iWI6JiuLFlBZr3hvlfpt-17" edge="1">
          <mxGeometry width="50" height="50" relative="1" as="geometry">
            <mxPoint x="10" y="5" as="sourcePoint" />
            <mxPoint x="10" y="15" as="targetPoint" />
          </mxGeometry>
        </mxCell>
        <mxCell id="iWI6JiuLFlBZr3hvlfpt-22" value="" style="endArrow=classic;html=1;rounded=0;exitX=1;exitY=0.5;exitDx=0;exitDy=0;entryX=0;entryY=0.5;entryDx=0;entryDy=0;fontFamily=Go Mono;fontSize=10;" parent="1" source="iWI6JiuLFlBZr3hvlfpt-7" target="iWI6JiuLFlBZr3hvlfpt-8" edge="1">
          <mxGeometry width="50" height="50" relative="1" as="geometry">
            <mxPoint x="195" y="214" as="sourcePoint" />
            <mxPoint x="245" y="164" as="targetPoint" />
          </mxGeometry>
        </mxCell>
        <mxCell id="iWI6JiuLFlBZr3hvlfpt-23" value="" style="endArrow=classic;html=1;rounded=0;exitX=1;exitY=0.5;exitDx=0;exitDy=0;entryX=0;entryY=0.5;entryDx=0;entryDy=0;fontFamily=Go Mono;fontSize=10;" parent="1" source="a6dJDQt0KXZhfJ8KA_fV-4" target="a6dJDQt0KXZhfJ8KA_fV-1" edge="1">
          <mxGeometry width="50" height="50" relative="1" as="geometry">
            <mxPoint x="465" y="154" as="sourcePoint" />
            <mxPoint x="500" y="104" as="targetPoint" />
          </mxGeometry>
        </mxCell>
        <mxCell id="a6dJDQt0KXZhfJ8KA_fV-2" style="edgeStyle=orthogonalEdgeStyle;rounded=0;orthogonalLoop=1;jettySize=auto;html=1;exitX=1;exitY=0.5;exitDx=0;exitDy=0;entryX=0.002;entryY=0.515;entryDx=0;entryDy=0;entryPerimeter=0;fontFamily=Go Mono;fontSize=10;" parent="1" source="a6dJDQt0KXZhfJ8KA_fV-1" target="a6dJDQt0KXZhfJ8KA_fV-44" edge="1">
          <mxGeometry relative="1" as="geometry">
            <mxPoint x="745" y="119" as="targetPoint" />
          </mxGeometry>
        </mxCell>
        <mxCell id="a6dJDQt0KXZhfJ8KA_fV-1" value="Spreader" style="rounded=0;whiteSpace=wrap;html=1;fontFamily=Go Mono;fontSize=10;" parent="1" vertex="1">
          <mxGeometry x="630" y="89" width="100" height="30" as="geometry" />
        </mxCell>
        <mxCell id="a6dJDQt0KXZhfJ8KA_fV-5" value="" style="endArrow=classic;html=1;rounded=0;exitX=1;exitY=0.5;exitDx=0;exitDy=0;entryX=0;entryY=0.5;entryDx=0;entryDy=0;fontFamily=Go Mono;fontSize=10;" parent="1" source="iWI6JiuLFlBZr3hvlfpt-8" target="a6dJDQt0KXZhfJ8KA_fV-4" edge="1">
          <mxGeometry width="50" height="50" relative="1" as="geometry">
            <mxPoint x="470" y="104" as="sourcePoint" />
            <mxPoint x="635" y="104" as="targetPoint" />
          </mxGeometry>
        </mxCell>
        <mxCell id="a6dJDQt0KXZhfJ8KA_fV-4" value="Downsampler" style="rounded=0;whiteSpace=wrap;html=1;fontFamily=Go Mono;fontSize=10;" parent="1" vertex="1">
          <mxGeometry x="500" y="89" width="100" height="30" as="geometry" />
        </mxCell>
        <mxCell id="a6dJDQt0KXZhfJ8KA_fV-13" style="edgeStyle=orthogonalEdgeStyle;rounded=0;orthogonalLoop=1;jettySize=auto;html=1;exitX=1;exitY=0.5;exitDx=0;exitDy=0;entryX=0.5;entryY=0;entryDx=0;entryDy=0;fontFamily=Go Mono;fontSize=10;" parent="1" source="a6dJDQt0KXZhfJ8KA_fV-7" target="a6dJDQt0KXZhfJ8KA_fV-10" edge="1">
          <mxGeometry relative="1" as="geometry">
            <Array as="points">
              <mxPoint x="250" y="224" />
            </Array>
          </mxGeometry>
        </mxCell>
        <mxCell id="a6dJDQt0KXZhfJ8KA_fV-7" value="Impulse" style="rounded=0;whiteSpace=wrap;html=1;fontFamily=Go Mono;fontSize=10;" parent="1" vertex="1">
          <mxGeometry x="40" y="209" width="80" height="30" as="geometry" />
        </mxCell>
        <mxCell id="a6dJDQt0KXZhfJ8KA_fV-63" style="edgeStyle=orthogonalEdgeStyle;rounded=0;orthogonalLoop=1;jettySize=auto;html=1;exitX=1;exitY=0.5;exitDx=0;exitDy=0;entryX=0;entryY=0.5;entryDx=0;entryDy=0;fontFamily=Go Mono;fontSize=10;" parent="1" source="a6dJDQt0KXZhfJ8KA_fV-8" target="a6dJDQt0KXZhfJ8KA_fV-61" edge="1">
          <mxGeometry relative="1" as="geometry" />
        </mxCell>
        <mxCell id="a6dJDQt0KXZhfJ8KA_fV-8" value="White Noise" style="rounded=0;whiteSpace=wrap;html=1;fontFamily=Go Mono;fontSize=10;" parent="1" vertex="1">
          <mxGeometry x="40" y="259" width="80" height="30" as="geometry" />
        </mxCell>
        <mxCell id="a6dJDQt0KXZhfJ8KA_fV-9" value="" style="group;fontFamily=Go Mono;fontSize=10;" parent="1" vertex="1" connectable="0">
          <mxGeometry x="240" y="239" width="20" height="20" as="geometry" />
        </mxCell>
        <mxCell id="a6dJDQt0KXZhfJ8KA_fV-10" value="" style="ellipse;whiteSpace=wrap;html=1;aspect=fixed;fontFamily=Go Mono;fontSize=10;" parent="a6dJDQt0KXZhfJ8KA_fV-9" vertex="1">
          <mxGeometry width="20" height="20" as="geometry" />
        </mxCell>
        <mxCell id="a6dJDQt0KXZhfJ8KA_fV-11" value="" style="endArrow=none;html=1;rounded=0;fontFamily=Go Mono;fontSize=10;" parent="a6dJDQt0KXZhfJ8KA_fV-9" edge="1">
          <mxGeometry width="50" height="50" relative="1" as="geometry">
            <mxPoint x="5" y="10" as="sourcePoint" />
            <mxPoint x="15" y="10" as="targetPoint" />
          </mxGeometry>
        </mxCell>
        <mxCell id="a6dJDQt0KXZhfJ8KA_fV-12" value="" style="endArrow=none;html=1;rounded=0;fontFamily=Go Mono;fontSize=10;" parent="a6dJDQt0KXZhfJ8KA_fV-9" edge="1">
          <mxGeometry width="50" height="50" relative="1" as="geometry">
            <mxPoint x="10" y="5" as="sourcePoint" />
            <mxPoint x="10" y="15" as="targetPoint" />
          </mxGeometry>
        </mxCell>
        <mxCell id="a6dJDQt0KXZhfJ8KA_fV-66" style="edgeStyle=orthogonalEdgeStyle;rounded=0;orthogonalLoop=1;jettySize=auto;html=1;exitX=0.5;exitY=1;exitDx=0;exitDy=0;entryX=0.5;entryY=0;entryDx=0;entryDy=0;fontFamily=Go Mono;fontSize=10;" parent="1" source="a6dJDQt0KXZhfJ8KA_fV-16" target="a6dJDQt0KXZhfJ8KA_fV-22" edge="1">
          <mxGeometry relative="1" as="geometry" />
        </mxCell>
        <mxCell id="a6dJDQt0KXZhfJ8KA_fV-16" value="Exp. Decay" style="rounded=0;whiteSpace=wrap;html=1;fontFamily=Go Mono;fontSize=10;" parent="1" vertex="1">
          <mxGeometry x="280" y="174" width="80" height="30" as="geometry" />
        </mxCell>
        <mxCell id="a6dJDQt0KXZhfJ8KA_fV-20" style="edgeStyle=orthogonalEdgeStyle;rounded=0;orthogonalLoop=1;jettySize=auto;html=1;exitX=1;exitY=0.5;exitDx=0;exitDy=0;entryX=0;entryY=0.5;entryDx=0;entryDy=0;fontFamily=Go Mono;fontSize=10;" parent="1" source="a6dJDQt0KXZhfJ8KA_fV-10" target="a6dJDQt0KXZhfJ8KA_fV-22" edge="1">
          <mxGeometry relative="1" as="geometry">
            <mxPoint x="339.99999999999636" y="249" as="sourcePoint" />
            <mxPoint x="390" y="249" as="targetPoint" />
          </mxGeometry>
        </mxCell>
        <mxCell id="a6dJDQt0KXZhfJ8KA_fV-27" value="" style="group;fontFamily=Go Mono;fontSize=10;" parent="1" vertex="1" connectable="0">
          <mxGeometry x="310" y="239" width="20" height="20" as="geometry" />
        </mxCell>
        <mxCell id="a6dJDQt0KXZhfJ8KA_fV-22" value="" style="ellipse;whiteSpace=wrap;html=1;aspect=fixed;fontFamily=Go Mono;fontSize=10;" parent="a6dJDQt0KXZhfJ8KA_fV-27" vertex="1">
          <mxGeometry width="20" height="20" as="geometry" />
        </mxCell>
        <mxCell id="a6dJDQt0KXZhfJ8KA_fV-23" value="" style="endArrow=none;html=1;rounded=0;fontFamily=Go Mono;fontSize=10;" parent="a6dJDQt0KXZhfJ8KA_fV-27" edge="1">
          <mxGeometry width="50" height="50" relative="1" as="geometry">
            <mxPoint x="6" y="6" as="sourcePoint" />
            <mxPoint x="14" y="14" as="targetPoint" />
          </mxGeometry>
        </mxCell>
        <mxCell id="a6dJDQt0KXZhfJ8KA_fV-24" value="" style="endArrow=none;html=1;rounded=0;fontFamily=Go Mono;fontSize=10;" parent="a6dJDQt0KXZhfJ8KA_fV-27" edge="1">
          <mxGeometry width="50" height="50" relative="1" as="geometry">
            <mxPoint x="14" y="6" as="sourcePoint" />
            <mxPoint x="6" y="14" as="targetPoint" />
          </mxGeometry>
        </mxCell>
        <mxCell id="a6dJDQt0KXZhfJ8KA_fV-38" value="Output" style="text;html=1;align=center;verticalAlign=middle;resizable=0;points=[];autosize=1;strokeColor=none;fillColor=none;fontFamily=Go Mono;fontSize=10;" parent="1" vertex="1">
          <mxGeometry x="381" y="234" width="55" height="30" as="geometry" />
        </mxCell>
        <mxCell id="a6dJDQt0KXZhfJ8KA_fV-41" value="" style="endArrow=classic;html=1;rounded=0;exitX=1;exitY=0.5;exitDx=0;exitDy=0;entryX=0.027;entryY=0.504;entryDx=0;entryDy=0;entryPerimeter=0;fontFamily=Go Mono;fontSize=10;" parent="1" source="a6dJDQt0KXZhfJ8KA_fV-22" target="a6dJDQt0KXZhfJ8KA_fV-38" edge="1">
          <mxGeometry width="50" height="50" relative="1" as="geometry">
            <mxPoint x="345" y="264" as="sourcePoint" />
            <mxPoint x="395" y="214" as="targetPoint" />
          </mxGeometry>
        </mxCell>
        <mxCell id="a6dJDQt0KXZhfJ8KA_fV-42" value="Impact Noise" style="text;html=1;align=left;verticalAlign=middle;resizable=0;points=[];autosize=1;strokeColor=none;fillColor=none;fontStyle=5;fontColor=#007CFF;fontFamily=Go Mono;fontSize=10;" parent="1" vertex="1">
          <mxGeometry x="40" y="169" width="95" height="30" as="geometry" />
        </mxCell>
        <mxCell id="a6dJDQt0KXZhfJ8KA_fV-43" value="DoubleLoopCymbal" style="text;html=1;align=left;verticalAlign=middle;resizable=0;points=[];autosize=1;strokeColor=none;fillColor=none;fontStyle=5;fontColor=#007CFF;fontFamily=Go Mono;fontSize=10;" parent="1" vertex="1">
          <mxGeometry x="40" y="9" width="115" height="30" as="geometry" />
        </mxCell>
        <mxCell id="a6dJDQt0KXZhfJ8KA_fV-44" value="Output" style="text;html=1;align=center;verticalAlign=middle;resizable=0;points=[];autosize=1;strokeColor=none;fillColor=none;fontFamily=Go Mono;fontSize=10;" parent="1" vertex="1">
          <mxGeometry x="761" y="89" width="55" height="30" as="geometry" />
        </mxCell>
        <mxCell id="a6dJDQt0KXZhfJ8KA_fV-45" value="White Noise is (uniform distribution)^3.&lt;div style=&quot;font-size: 10px;&quot;&gt;Highpass is 2nd order and bilinear transformed.&lt;/div&gt;" style="text;html=1;align=left;verticalAlign=middle;whiteSpace=wrap;rounded=0;fontFamily=Go Mono;fontSize=10;" parent="1" vertex="1">
          <mxGeometry x="50" y="299" width="510" height="40" as="geometry" />
        </mxCell>
        <mxCell id="a6dJDQt0KXZhfJ8KA_fV-46" value="Half Closed Noise" style="text;html=1;align=left;verticalAlign=middle;resizable=0;points=[];autosize=1;strokeColor=none;fillColor=none;fontStyle=5;fontColor=#007CFF;fontFamily=Go Mono;fontSize=10;" parent="1" vertex="1">
          <mxGeometry x="40" y="349" width="125" height="30" as="geometry" />
        </mxCell>
        <mxCell id="a6dJDQt0KXZhfJ8KA_fV-67" style="edgeStyle=orthogonalEdgeStyle;rounded=0;orthogonalLoop=1;jettySize=auto;html=1;exitX=0.5;exitY=1;exitDx=0;exitDy=0;entryX=0.5;entryY=0;entryDx=0;entryDy=0;fontFamily=Go Mono;fontSize=10;" parent="1" source="a6dJDQt0KXZhfJ8KA_fV-47" target="a6dJDQt0KXZhfJ8KA_fV-56" edge="1">
          <mxGeometry relative="1" as="geometry" />
        </mxCell>
        <mxCell id="a6dJDQt0KXZhfJ8KA_fV-47" value="Exp. Decay" style="rounded=0;whiteSpace=wrap;html=1;fontFamily=Go Mono;fontSize=10;" parent="1" vertex="1">
          <mxGeometry x="230" y="389" width="80" height="30" as="geometry" />
        </mxCell>
        <mxCell id="a6dJDQt0KXZhfJ8KA_fV-60" style="edgeStyle=orthogonalEdgeStyle;rounded=0;orthogonalLoop=1;jettySize=auto;html=1;exitX=1;exitY=0.5;exitDx=0;exitDy=0;entryX=0;entryY=0.5;entryDx=0;entryDy=0;fontFamily=Go Mono;fontSize=10;" parent="1" source="a6dJDQt0KXZhfJ8KA_fV-48" target="a6dJDQt0KXZhfJ8KA_fV-68" edge="1">
          <mxGeometry relative="1" as="geometry" />
        </mxCell>
        <mxCell id="a6dJDQt0KXZhfJ8KA_fV-48" value="White Noise" style="rounded=0;whiteSpace=wrap;html=1;fontFamily=Go Mono;fontSize=10;" parent="1" vertex="1">
          <mxGeometry x="40" y="439" width="80" height="30" as="geometry" />
        </mxCell>
        <mxCell id="a6dJDQt0KXZhfJ8KA_fV-54" style="edgeStyle=orthogonalEdgeStyle;rounded=0;orthogonalLoop=1;jettySize=auto;html=1;exitX=1;exitY=0.5;exitDx=0;exitDy=0;entryX=0;entryY=0.5;entryDx=0;entryDy=0;fontFamily=Go Mono;fontSize=10;" parent="1" source="a6dJDQt0KXZhfJ8KA_fV-53" target="a6dJDQt0KXZhfJ8KA_fV-47" edge="1">
          <mxGeometry relative="1" as="geometry" />
        </mxCell>
        <mxCell id="a6dJDQt0KXZhfJ8KA_fV-53" value="Random Trigger" style="rounded=0;whiteSpace=wrap;html=1;fontFamily=Go Mono;fontSize=10;" parent="1" vertex="1">
          <mxGeometry x="40" y="389" width="120" height="30" as="geometry" />
        </mxCell>
        <mxCell id="a6dJDQt0KXZhfJ8KA_fV-55" value="" style="group;fontFamily=Go Mono;fontSize=10;" parent="1" vertex="1" connectable="0">
          <mxGeometry x="260" y="444" width="20" height="20" as="geometry" />
        </mxCell>
        <mxCell id="a6dJDQt0KXZhfJ8KA_fV-56" value="" style="ellipse;whiteSpace=wrap;html=1;aspect=fixed;fontFamily=Go Mono;fontSize=10;" parent="a6dJDQt0KXZhfJ8KA_fV-55" vertex="1">
          <mxGeometry width="20" height="20" as="geometry" />
        </mxCell>
        <mxCell id="a6dJDQt0KXZhfJ8KA_fV-57" value="" style="endArrow=none;html=1;rounded=0;fontFamily=Go Mono;fontSize=10;" parent="a6dJDQt0KXZhfJ8KA_fV-55" edge="1">
          <mxGeometry width="50" height="50" relative="1" as="geometry">
            <mxPoint x="6" y="6" as="sourcePoint" />
            <mxPoint x="14" y="14" as="targetPoint" />
          </mxGeometry>
        </mxCell>
        <mxCell id="a6dJDQt0KXZhfJ8KA_fV-58" value="" style="endArrow=none;html=1;rounded=0;fontFamily=Go Mono;fontSize=10;" parent="a6dJDQt0KXZhfJ8KA_fV-55" edge="1">
          <mxGeometry width="50" height="50" relative="1" as="geometry">
            <mxPoint x="14" y="6" as="sourcePoint" />
            <mxPoint x="6" y="14" as="targetPoint" />
          </mxGeometry>
        </mxCell>
        <mxCell id="a6dJDQt0KXZhfJ8KA_fV-62" style="edgeStyle=orthogonalEdgeStyle;rounded=0;orthogonalLoop=1;jettySize=auto;html=1;exitX=1;exitY=0.5;exitDx=0;exitDy=0;entryX=0.5;entryY=1;entryDx=0;entryDy=0;fontFamily=Go Mono;fontSize=10;" parent="1" source="a6dJDQt0KXZhfJ8KA_fV-61" target="a6dJDQt0KXZhfJ8KA_fV-10" edge="1">
          <mxGeometry relative="1" as="geometry" />
        </mxCell>
        <mxCell id="a6dJDQt0KXZhfJ8KA_fV-61" value="Highpass" style="rounded=0;whiteSpace=wrap;html=1;fontFamily=Go Mono;fontSize=10;" parent="1" vertex="1">
          <mxGeometry x="150" y="259" width="80" height="30" as="geometry" />
        </mxCell>
        <mxCell id="a6dJDQt0KXZhfJ8KA_fV-69" style="edgeStyle=orthogonalEdgeStyle;rounded=0;orthogonalLoop=1;jettySize=auto;html=1;exitX=1;exitY=0.5;exitDx=0;exitDy=0;entryX=0;entryY=0.5;entryDx=0;entryDy=0;fontFamily=Go Mono;fontSize=10;" parent="1" source="a6dJDQt0KXZhfJ8KA_fV-68" target="a6dJDQt0KXZhfJ8KA_fV-56" edge="1">
          <mxGeometry relative="1" as="geometry" />
        </mxCell>
        <mxCell id="a6dJDQt0KXZhfJ8KA_fV-68" value="Highpass" style="rounded=0;whiteSpace=wrap;html=1;fontFamily=Go Mono;fontSize=10;" parent="1" vertex="1">
          <mxGeometry x="150" y="439" width="80" height="30" as="geometry" />
        </mxCell>
        <mxCell id="a6dJDQt0KXZhfJ8KA_fV-77" style="edgeStyle=orthogonalEdgeStyle;rounded=0;orthogonalLoop=1;jettySize=auto;html=1;entryX=1;entryY=0.5;entryDx=0;entryDy=0;endArrow=none;endFill=0;startArrow=classic;startFill=1;fontFamily=Go Mono;fontSize=10;" parent="1" source="a6dJDQt0KXZhfJ8KA_fV-70" target="a6dJDQt0KXZhfJ8KA_fV-56" edge="1">
          <mxGeometry relative="1" as="geometry" />
        </mxCell>
        <mxCell id="a6dJDQt0KXZhfJ8KA_fV-70" value="Output" style="text;html=1;align=center;verticalAlign=middle;resizable=0;points=[];autosize=1;strokeColor=none;fillColor=none;fontFamily=Go Mono;fontSize=10;" parent="1" vertex="1">
          <mxGeometry x="321" y="439" width="55" height="30" as="geometry" />
        </mxCell>
        <mxCell id="a6dJDQt0KXZhfJ8KA_fV-74" value="Closing Noise" style="text;html=1;align=left;verticalAlign=middle;resizable=0;points=[];autosize=1;strokeColor=none;fillColor=none;fontStyle=5;fontColor=#007CFF;fontFamily=Go Mono;fontSize=10;" parent="1" vertex="1">
          <mxGeometry x="40" y="509" width="100" height="30" as="geometry" />
        </mxCell>
        <mxCell id="a6dJDQt0KXZhfJ8KA_fV-76" style="edgeStyle=orthogonalEdgeStyle;rounded=0;orthogonalLoop=1;jettySize=auto;html=1;entryX=0;entryY=0.5;entryDx=0;entryDy=0;fontFamily=Go Mono;fontSize=10;" parent="1" source="a6dJDQt0KXZhfJ8KA_fV-75" target="a6dJDQt0KXZhfJ8KA_fV-16" edge="1">
          <mxGeometry relative="1" as="geometry" />
        </mxCell>
        <mxCell id="a6dJDQt0KXZhfJ8KA_fV-75" value="Note-on" style="text;html=1;align=center;verticalAlign=middle;resizable=0;points=[];autosize=1;strokeColor=none;fillColor=none;fontFamily=Go Mono;fontSize=10;" parent="1" vertex="1">
          <mxGeometry x="186" y="174" width="65" height="30" as="geometry" />
        </mxCell>
        <mxCell id="a6dJDQt0KXZhfJ8KA_fV-93" style="edgeStyle=orthogonalEdgeStyle;rounded=0;orthogonalLoop=1;jettySize=auto;html=1;exitX=1;exitY=0.5;exitDx=0;exitDy=0;entryX=0;entryY=0.5;entryDx=0;entryDy=0;fontFamily=Go Mono;fontSize=10;" parent="1" source="a6dJDQt0KXZhfJ8KA_fV-79" target="a6dJDQt0KXZhfJ8KA_fV-89" edge="1">
          <mxGeometry relative="1" as="geometry" />
        </mxCell>
        <mxCell id="a6dJDQt0KXZhfJ8KA_fV-79" value="Exp. AD Envelope" style="rounded=0;whiteSpace=wrap;html=1;fontFamily=Go Mono;fontSize=10;" parent="1" vertex="1">
          <mxGeometry x="190" y="549" width="120" height="30" as="geometry" />
        </mxCell>
        <mxCell id="a6dJDQt0KXZhfJ8KA_fV-82" style="edgeStyle=orthogonalEdgeStyle;rounded=0;orthogonalLoop=1;jettySize=auto;html=1;exitX=1;exitY=0.5;exitDx=0;exitDy=0;entryX=0;entryY=0.5;entryDx=0;entryDy=0;fontFamily=Go Mono;fontSize=10;" parent="1" source="a6dJDQt0KXZhfJ8KA_fV-83" target="a6dJDQt0KXZhfJ8KA_fV-79" edge="1">
          <mxGeometry relative="1" as="geometry" />
        </mxCell>
        <mxCell id="a6dJDQt0KXZhfJ8KA_fV-83" value="Random Trigger" style="rounded=0;whiteSpace=wrap;html=1;fontFamily=Go Mono;fontSize=10;" parent="1" vertex="1">
          <mxGeometry x="40" y="549" width="120" height="30" as="geometry" />
        </mxCell>
        <mxCell id="a6dJDQt0KXZhfJ8KA_fV-89" value="Highpass" style="rounded=0;whiteSpace=wrap;html=1;fontFamily=Go Mono;fontSize=10;" parent="1" vertex="1">
          <mxGeometry x="340" y="549" width="80" height="30" as="geometry" />
        </mxCell>
        <mxCell id="a6dJDQt0KXZhfJ8KA_fV-90" style="edgeStyle=orthogonalEdgeStyle;rounded=0;orthogonalLoop=1;jettySize=auto;html=1;entryX=1;entryY=0.5;entryDx=0;entryDy=0;endArrow=none;endFill=0;startArrow=classic;startFill=1;fontFamily=Go Mono;fontSize=10;" parent="1" source="a6dJDQt0KXZhfJ8KA_fV-91" target="a6dJDQt0KXZhfJ8KA_fV-89" edge="1">
          <mxGeometry relative="1" as="geometry">
            <mxPoint x="320" y="614" as="targetPoint" />
          </mxGeometry>
        </mxCell>
        <mxCell id="a6dJDQt0KXZhfJ8KA_fV-91" value="Output" style="text;html=1;align=center;verticalAlign=middle;resizable=0;points=[];autosize=1;strokeColor=none;fillColor=none;fontFamily=Go Mono;fontSize=10;" parent="1" vertex="1">
          <mxGeometry x="451" y="549" width="55" height="30" as="geometry" />
        </mxCell>
        <mxCell id="a6dJDQt0KXZhfJ8KA_fV-94" value="Allpass Loop" style="text;html=1;align=left;verticalAlign=middle;resizable=0;points=[];autosize=1;strokeColor=none;fillColor=none;fontStyle=5;fontColor=#007CFF;fontFamily=Go Mono;fontSize=10;" parent="1" vertex="1">
          <mxGeometry x="40" y="599" width="95" height="30" as="geometry" />
        </mxCell>
        <mxCell id="a6dJDQt0KXZhfJ8KA_fV-103" style="edgeStyle=orthogonalEdgeStyle;rounded=0;orthogonalLoop=1;jettySize=auto;html=1;exitX=1;exitY=0.5;exitDx=0;exitDy=0;endArrow=none;endFill=0;fontFamily=Go Mono;fontSize=10;" parent="1" source="a6dJDQt0KXZhfJ8KA_fV-95" target="a6dJDQt0KXZhfJ8KA_fV-102" edge="1">
          <mxGeometry relative="1" as="geometry" />
        </mxCell>
        <mxCell id="a6dJDQt0KXZhfJ8KA_fV-95" value="Allpass" style="rounded=0;whiteSpace=wrap;html=1;fontFamily=Go Mono;fontSize=10;" parent="1" vertex="1">
          <mxGeometry x="150" y="659" width="60" height="30" as="geometry" />
        </mxCell>
        <mxCell id="a6dJDQt0KXZhfJ8KA_fV-96" value="Allpass" style="rounded=0;whiteSpace=wrap;html=1;fontFamily=Go Mono;fontSize=10;" parent="1" vertex="1">
          <mxGeometry x="260" y="659" width="60" height="30" as="geometry" />
        </mxCell>
        <mxCell id="a6dJDQt0KXZhfJ8KA_fV-101" style="edgeStyle=orthogonalEdgeStyle;rounded=0;orthogonalLoop=1;jettySize=auto;html=1;entryX=0;entryY=0.5;entryDx=0;entryDy=0;exitX=1;exitY=0.5;exitDx=0;exitDy=0;fontFamily=Go Mono;fontSize=10;" parent="1" source="a6dJDQt0KXZhfJ8KA_fV-113" target="a6dJDQt0KXZhfJ8KA_fV-100" edge="1">
          <mxGeometry relative="1" as="geometry">
            <mxPoint x="430" y="674" as="sourcePoint" />
          </mxGeometry>
        </mxCell>
        <mxCell id="a6dJDQt0KXZhfJ8KA_fV-110" style="edgeStyle=orthogonalEdgeStyle;rounded=0;orthogonalLoop=1;jettySize=auto;html=1;endArrow=none;endFill=0;startArrow=classic;startFill=1;exitX=0;exitY=0.5;exitDx=0;exitDy=0;fontFamily=Go Mono;fontSize=10;" parent="1" source="a6dJDQt0KXZhfJ8KA_fV-113" target="a6dJDQt0KXZhfJ8KA_fV-106" edge="1">
          <mxGeometry relative="1" as="geometry">
            <mxPoint x="370" y="674" as="sourcePoint" />
            <mxPoint x="340" y="674" as="targetPoint" />
          </mxGeometry>
        </mxCell>
        <mxCell id="a6dJDQt0KXZhfJ8KA_fV-120" style="edgeStyle=orthogonalEdgeStyle;rounded=0;orthogonalLoop=1;jettySize=auto;html=1;exitX=1;exitY=0.5;exitDx=0;exitDy=0;endArrow=none;endFill=0;fontFamily=Go Mono;fontSize=10;" parent="1" source="a6dJDQt0KXZhfJ8KA_fV-100" target="a6dJDQt0KXZhfJ8KA_fV-119" edge="1">
          <mxGeometry relative="1" as="geometry" />
        </mxCell>
        <mxCell id="a6dJDQt0KXZhfJ8KA_fV-100" value="Allpass" style="rounded=0;whiteSpace=wrap;html=1;fontFamily=Go Mono;fontSize=10;" parent="1" vertex="1">
          <mxGeometry x="440" y="659" width="60" height="30" as="geometry" />
        </mxCell>
        <mxCell id="a6dJDQt0KXZhfJ8KA_fV-104" style="edgeStyle=orthogonalEdgeStyle;rounded=0;orthogonalLoop=1;jettySize=auto;html=1;entryX=0;entryY=0.5;entryDx=0;entryDy=0;fontFamily=Go Mono;fontSize=10;" parent="1" source="a6dJDQt0KXZhfJ8KA_fV-102" target="a6dJDQt0KXZhfJ8KA_fV-96" edge="1">
          <mxGeometry relative="1" as="geometry" />
        </mxCell>
        <mxCell id="a6dJDQt0KXZhfJ8KA_fV-116" style="edgeStyle=orthogonalEdgeStyle;rounded=0;orthogonalLoop=1;jettySize=auto;html=1;entryX=0;entryY=0.5;entryDx=0;entryDy=0;endArrow=none;endFill=0;fontFamily=Go Mono;fontSize=10;" parent="1" source="a6dJDQt0KXZhfJ8KA_fV-102" target="a6dJDQt0KXZhfJ8KA_fV-125" edge="1">
          <mxGeometry relative="1" as="geometry">
            <mxPoint x="230.39499999999998" y="706.1500000000001" as="targetPoint" />
          </mxGeometry>
        </mxCell>
        <mxCell id="a6dJDQt0KXZhfJ8KA_fV-102" value="" style="shape=waypoint;sketch=0;fillStyle=solid;size=6;pointerEvents=1;points=[];fillColor=none;resizable=0;rotatable=0;perimeter=centerPerimeter;snapToPoint=1;fontFamily=Go Mono;fontSize=10;" parent="1" vertex="1">
          <mxGeometry x="220" y="664" width="20" height="20" as="geometry" />
        </mxCell>
        <mxCell id="a6dJDQt0KXZhfJ8KA_fV-118" style="edgeStyle=orthogonalEdgeStyle;rounded=0;orthogonalLoop=1;jettySize=auto;html=1;entryX=0;entryY=0.5;entryDx=0;entryDy=0;endArrow=none;endFill=0;fontFamily=Go Mono;fontSize=10;" parent="1" source="a6dJDQt0KXZhfJ8KA_fV-106" target="a6dJDQt0KXZhfJ8KA_fV-126" edge="1">
          <mxGeometry relative="1" as="geometry">
            <mxPoint x="340" y="699" as="targetPoint" />
          </mxGeometry>
        </mxCell>
        <mxCell id="a6dJDQt0KXZhfJ8KA_fV-106" value="" style="shape=waypoint;sketch=0;fillStyle=solid;size=6;pointerEvents=1;points=[];fillColor=none;resizable=0;rotatable=0;perimeter=centerPerimeter;snapToPoint=1;fontFamily=Go Mono;fontSize=10;" parent="1" vertex="1">
          <mxGeometry x="330" y="664" width="20" height="20" as="geometry" />
        </mxCell>
        <mxCell id="a6dJDQt0KXZhfJ8KA_fV-108" style="edgeStyle=orthogonalEdgeStyle;rounded=0;orthogonalLoop=1;jettySize=auto;html=1;exitX=1;exitY=0.5;exitDx=0;exitDy=0;endArrow=none;endFill=0;entryX=0.536;entryY=0.648;entryDx=0;entryDy=0;entryPerimeter=0;fontFamily=Go Mono;fontSize=10;" parent="1" source="a6dJDQt0KXZhfJ8KA_fV-96" target="a6dJDQt0KXZhfJ8KA_fV-106" edge="1">
          <mxGeometry relative="1" as="geometry">
            <mxPoint x="335" y="674" as="targetPoint" />
          </mxGeometry>
        </mxCell>
        <mxCell id="a6dJDQt0KXZhfJ8KA_fV-113" value="..." style="text;html=1;align=center;verticalAlign=middle;whiteSpace=wrap;rounded=0;fontFamily=Go Mono;fontSize=10;" parent="1" vertex="1">
          <mxGeometry x="370" y="659" width="40" height="30" as="geometry" />
        </mxCell>
        <mxCell id="a6dJDQt0KXZhfJ8KA_fV-122" style="edgeStyle=orthogonalEdgeStyle;rounded=0;orthogonalLoop=1;jettySize=auto;html=1;entryX=0.5;entryY=0;entryDx=0;entryDy=0;endArrow=none;endFill=0;fontFamily=Go Mono;fontSize=10;" parent="1" source="a6dJDQt0KXZhfJ8KA_fV-119" edge="1">
          <mxGeometry relative="1" as="geometry">
            <mxPoint x="520" y="699" as="targetPoint" />
          </mxGeometry>
        </mxCell>
        <mxCell id="a6dJDQt0KXZhfJ8KA_fV-159" style="edgeStyle=orthogonalEdgeStyle;rounded=0;orthogonalLoop=1;jettySize=auto;html=1;entryX=0;entryY=0.5;entryDx=0;entryDy=0;fontFamily=Go Mono;fontSize=10;" parent="1" source="a6dJDQt0KXZhfJ8KA_fV-119" target="a6dJDQt0KXZhfJ8KA_fV-148" edge="1">
          <mxGeometry relative="1" as="geometry" />
        </mxCell>
        <mxCell id="a6dJDQt0KXZhfJ8KA_fV-119" value="" style="shape=waypoint;sketch=0;fillStyle=solid;size=6;pointerEvents=1;points=[];fillColor=none;resizable=0;rotatable=0;perimeter=centerPerimeter;snapToPoint=1;fontFamily=Go Mono;fontSize=10;" parent="1" vertex="1">
          <mxGeometry x="510" y="664" width="20" height="20" as="geometry" />
        </mxCell>
        <mxCell id="a6dJDQt0KXZhfJ8KA_fV-134" style="edgeStyle=orthogonalEdgeStyle;rounded=0;orthogonalLoop=1;jettySize=auto;html=1;exitX=1;exitY=0.5;exitDx=0;exitDy=0;entryX=0;entryY=0.5;entryDx=0;entryDy=0;fontFamily=Go Mono;fontSize=10;" parent="1" source="a6dJDQt0KXZhfJ8KA_fV-125" target="a6dJDQt0KXZhfJ8KA_fV-129" edge="1">
          <mxGeometry relative="1" as="geometry" />
        </mxCell>
        <mxCell id="a6dJDQt0KXZhfJ8KA_fV-125" value="" style="triangle;whiteSpace=wrap;html=1;rotation=90;fontFamily=Go Mono;fontSize=10;" parent="1" vertex="1">
          <mxGeometry x="220" y="699" width="20" height="20" as="geometry" />
        </mxCell>
        <mxCell id="a6dJDQt0KXZhfJ8KA_fV-135" style="edgeStyle=orthogonalEdgeStyle;rounded=0;orthogonalLoop=1;jettySize=auto;html=1;exitX=1;exitY=0.5;exitDx=0;exitDy=0;entryX=0.5;entryY=0;entryDx=0;entryDy=0;fontFamily=Go Mono;fontSize=10;" parent="1" source="a6dJDQt0KXZhfJ8KA_fV-126" target="a6dJDQt0KXZhfJ8KA_fV-129" edge="1">
          <mxGeometry relative="1" as="geometry" />
        </mxCell>
        <mxCell id="a6dJDQt0KXZhfJ8KA_fV-126" value="" style="triangle;whiteSpace=wrap;html=1;rotation=90;fontFamily=Go Mono;fontSize=10;" parent="1" vertex="1">
          <mxGeometry x="330" y="699" width="20" height="20" as="geometry" />
        </mxCell>
        <mxCell id="a6dJDQt0KXZhfJ8KA_fV-142" style="edgeStyle=orthogonalEdgeStyle;rounded=0;orthogonalLoop=1;jettySize=auto;html=1;exitX=1;exitY=0.5;exitDx=0;exitDy=0;entryX=0.5;entryY=0;entryDx=0;entryDy=0;fontFamily=Go Mono;fontSize=10;" parent="1" source="a6dJDQt0KXZhfJ8KA_fV-127" target="a6dJDQt0KXZhfJ8KA_fV-139" edge="1">
          <mxGeometry relative="1" as="geometry" />
        </mxCell>
        <mxCell id="a6dJDQt0KXZhfJ8KA_fV-127" value="" style="triangle;whiteSpace=wrap;html=1;rotation=90;fontFamily=Go Mono;fontSize=10;" parent="1" vertex="1">
          <mxGeometry x="510" y="699" width="20" height="20" as="geometry" />
        </mxCell>
        <mxCell id="a6dJDQt0KXZhfJ8KA_fV-128" value="" style="group;fontFamily=Go Mono;fontSize=10;" parent="1" vertex="1" connectable="0">
          <mxGeometry x="330" y="739" width="20" height="20" as="geometry" />
        </mxCell>
        <mxCell id="a6dJDQt0KXZhfJ8KA_fV-129" value="" style="ellipse;whiteSpace=wrap;html=1;aspect=fixed;fontFamily=Go Mono;fontSize=10;" parent="a6dJDQt0KXZhfJ8KA_fV-128" vertex="1">
          <mxGeometry width="20" height="20" as="geometry" />
        </mxCell>
        <mxCell id="a6dJDQt0KXZhfJ8KA_fV-130" value="" style="endArrow=none;html=1;rounded=0;fontFamily=Go Mono;fontSize=10;" parent="a6dJDQt0KXZhfJ8KA_fV-128" edge="1">
          <mxGeometry width="50" height="50" relative="1" as="geometry">
            <mxPoint x="5" y="10" as="sourcePoint" />
            <mxPoint x="15" y="10" as="targetPoint" />
          </mxGeometry>
        </mxCell>
        <mxCell id="a6dJDQt0KXZhfJ8KA_fV-131" value="" style="endArrow=none;html=1;rounded=0;fontFamily=Go Mono;fontSize=10;" parent="a6dJDQt0KXZhfJ8KA_fV-128" edge="1">
          <mxGeometry width="50" height="50" relative="1" as="geometry">
            <mxPoint x="10" y="5" as="sourcePoint" />
            <mxPoint x="10" y="15" as="targetPoint" />
          </mxGeometry>
        </mxCell>
        <mxCell id="a6dJDQt0KXZhfJ8KA_fV-136" value="" style="endArrow=classic;html=1;rounded=0;exitX=1;exitY=0.5;exitDx=0;exitDy=0;entryX=0;entryY=0.5;entryDx=0;entryDy=0;fontFamily=Go Mono;fontSize=10;" parent="1" source="a6dJDQt0KXZhfJ8KA_fV-129" target="a6dJDQt0KXZhfJ8KA_fV-137" edge="1">
          <mxGeometry width="50" height="50" relative="1" as="geometry">
            <mxPoint x="390" y="754" as="sourcePoint" />
            <mxPoint x="370" y="749" as="targetPoint" />
          </mxGeometry>
        </mxCell>
        <mxCell id="a6dJDQt0KXZhfJ8KA_fV-143" style="edgeStyle=orthogonalEdgeStyle;rounded=0;orthogonalLoop=1;jettySize=auto;html=1;entryX=0;entryY=0.5;entryDx=0;entryDy=0;fontFamily=Go Mono;fontSize=10;" parent="1" source="a6dJDQt0KXZhfJ8KA_fV-137" target="a6dJDQt0KXZhfJ8KA_fV-139" edge="1">
          <mxGeometry relative="1" as="geometry" />
        </mxCell>
        <mxCell id="a6dJDQt0KXZhfJ8KA_fV-137" value="..." style="text;html=1;align=center;verticalAlign=middle;whiteSpace=wrap;rounded=0;fontFamily=Go Mono;fontSize=10;" parent="1" vertex="1">
          <mxGeometry x="370" y="734" width="40" height="30" as="geometry" />
        </mxCell>
        <mxCell id="a6dJDQt0KXZhfJ8KA_fV-138" value="" style="group;fontFamily=Go Mono;fontSize=10;" parent="1" vertex="1" connectable="0">
          <mxGeometry x="510" y="739" width="20" height="20" as="geometry" />
        </mxCell>
        <mxCell id="a6dJDQt0KXZhfJ8KA_fV-139" value="" style="ellipse;whiteSpace=wrap;html=1;aspect=fixed;fontFamily=Go Mono;fontSize=10;" parent="a6dJDQt0KXZhfJ8KA_fV-138" vertex="1">
          <mxGeometry width="20" height="20" as="geometry" />
        </mxCell>
        <mxCell id="a6dJDQt0KXZhfJ8KA_fV-140" value="" style="endArrow=none;html=1;rounded=0;fontFamily=Go Mono;fontSize=10;" parent="a6dJDQt0KXZhfJ8KA_fV-138" edge="1">
          <mxGeometry width="50" height="50" relative="1" as="geometry">
            <mxPoint x="5" y="10" as="sourcePoint" />
            <mxPoint x="15" y="10" as="targetPoint" />
          </mxGeometry>
        </mxCell>
        <mxCell id="a6dJDQt0KXZhfJ8KA_fV-141" value="" style="endArrow=none;html=1;rounded=0;fontFamily=Go Mono;fontSize=10;" parent="a6dJDQt0KXZhfJ8KA_fV-138" edge="1">
          <mxGeometry width="50" height="50" relative="1" as="geometry">
            <mxPoint x="10" y="5" as="sourcePoint" />
            <mxPoint x="10" y="15" as="targetPoint" />
          </mxGeometry>
        </mxCell>
        <mxCell id="a6dJDQt0KXZhfJ8KA_fV-144" value="&lt;font style=&quot;font-size: 8px;&quot;&gt;Sign 1&lt;/font&gt;" style="text;html=1;align=center;verticalAlign=middle;whiteSpace=wrap;rounded=0;fontFamily=Go Mono;fontSize=8;" parent="1" vertex="1">
          <mxGeometry x="350" y="699" width="40" height="20" as="geometry" />
        </mxCell>
        <mxCell id="a6dJDQt0KXZhfJ8KA_fV-145" value="&lt;font style=&quot;font-size: 8px;&quot;&gt;Sign 0&lt;/font&gt;" style="text;html=1;align=center;verticalAlign=middle;whiteSpace=wrap;rounded=0;fontFamily=Go Mono;fontSize=8;" parent="1" vertex="1">
          <mxGeometry x="240" y="699" width="40" height="20" as="geometry" />
        </mxCell>
        <mxCell id="a6dJDQt0KXZhfJ8KA_fV-146" value="&lt;font style=&quot;font-size: 8px;&quot;&gt;Sign (N-1)&lt;/font&gt;" style="text;html=1;align=center;verticalAlign=middle;whiteSpace=wrap;rounded=0;fontFamily=Go Mono;fontSize=8;" parent="1" vertex="1">
          <mxGeometry x="530" y="699" width="55" height="20" as="geometry" />
        </mxCell>
        <mxCell id="a6dJDQt0KXZhfJ8KA_fV-147" value="High Shelf and Low Shelf are based on exponential moving average (EMA) filter." style="text;html=1;align=left;verticalAlign=middle;whiteSpace=wrap;rounded=0;fontFamily=Go Mono;fontSize=10;" parent="1" vertex="1">
          <mxGeometry x="50" y="999" width="595" height="20" as="geometry" />
        </mxCell>
        <mxCell id="a6dJDQt0KXZhfJ8KA_fV-161" style="edgeStyle=orthogonalEdgeStyle;rounded=0;orthogonalLoop=1;jettySize=auto;html=1;exitX=0.5;exitY=0;exitDx=0;exitDy=0;entryX=0.5;entryY=0;entryDx=0;entryDy=0;fontFamily=Go Mono;fontSize=10;" parent="1" source="a6dJDQt0KXZhfJ8KA_fV-148" target="a6dJDQt0KXZhfJ8KA_fV-152" edge="1">
          <mxGeometry relative="1" as="geometry" />
        </mxCell>
        <mxCell id="a6dJDQt0KXZhfJ8KA_fV-167" style="edgeStyle=orthogonalEdgeStyle;rounded=0;orthogonalLoop=1;jettySize=auto;html=1;exitX=1;exitY=0.5;exitDx=0;exitDy=0;entryX=0;entryY=0.5;entryDx=0;entryDy=0;endArrow=none;endFill=0;fontFamily=Go Mono;fontSize=10;" parent="1" source="a6dJDQt0KXZhfJ8KA_fV-148" target="a6dJDQt0KXZhfJ8KA_fV-165" edge="1">
          <mxGeometry relative="1" as="geometry" />
        </mxCell>
        <mxCell id="a6dJDQt0KXZhfJ8KA_fV-148" value="lerp" style="rounded=0;whiteSpace=wrap;html=1;fontFamily=Go Mono;fontSize=10;" parent="1" vertex="1">
          <mxGeometry x="580" y="659" width="60" height="30" as="geometry" />
        </mxCell>
        <mxCell id="a6dJDQt0KXZhfJ8KA_fV-151" value="" style="group;fontFamily=Go Mono;fontSize=10;" parent="1" vertex="1" connectable="0">
          <mxGeometry x="110" y="664" width="20" height="20" as="geometry" />
        </mxCell>
        <mxCell id="a6dJDQt0KXZhfJ8KA_fV-152" value="" style="ellipse;whiteSpace=wrap;html=1;aspect=fixed;fontFamily=Go Mono;fontSize=10;" parent="a6dJDQt0KXZhfJ8KA_fV-151" vertex="1">
          <mxGeometry width="20" height="20" as="geometry" />
        </mxCell>
        <mxCell id="a6dJDQt0KXZhfJ8KA_fV-153" value="" style="endArrow=none;html=1;rounded=0;fontFamily=Go Mono;fontSize=10;" parent="a6dJDQt0KXZhfJ8KA_fV-151" edge="1">
          <mxGeometry width="50" height="50" relative="1" as="geometry">
            <mxPoint x="5" y="10" as="sourcePoint" />
            <mxPoint x="15" y="10" as="targetPoint" />
          </mxGeometry>
        </mxCell>
        <mxCell id="a6dJDQt0KXZhfJ8KA_fV-154" value="" style="endArrow=none;html=1;rounded=0;fontFamily=Go Mono;fontSize=10;" parent="a6dJDQt0KXZhfJ8KA_fV-151" edge="1">
          <mxGeometry width="50" height="50" relative="1" as="geometry">
            <mxPoint x="10" y="5" as="sourcePoint" />
            <mxPoint x="10" y="15" as="targetPoint" />
          </mxGeometry>
        </mxCell>
        <mxCell id="a6dJDQt0KXZhfJ8KA_fV-155" style="edgeStyle=orthogonalEdgeStyle;rounded=0;orthogonalLoop=1;jettySize=auto;html=1;entryX=0;entryY=0.5;entryDx=0;entryDy=0;fontFamily=Go Mono;fontSize=10;" parent="1" source="a6dJDQt0KXZhfJ8KA_fV-152" target="a6dJDQt0KXZhfJ8KA_fV-95" edge="1">
          <mxGeometry relative="1" as="geometry" />
        </mxCell>
        <mxCell id="a6dJDQt0KXZhfJ8KA_fV-158" style="edgeStyle=orthogonalEdgeStyle;rounded=0;orthogonalLoop=1;jettySize=auto;html=1;entryX=0;entryY=0.5;entryDx=0;entryDy=0;fontFamily=Go Mono;fontSize=10;" parent="1" source="a6dJDQt0KXZhfJ8KA_fV-157" target="a6dJDQt0KXZhfJ8KA_fV-152" edge="1">
          <mxGeometry relative="1" as="geometry" />
        </mxCell>
        <mxCell id="a6dJDQt0KXZhfJ8KA_fV-157" value="Input" style="text;html=1;align=center;verticalAlign=middle;resizable=0;points=[];autosize=1;strokeColor=none;fillColor=none;fontFamily=Go Mono;fontSize=10;" parent="1" vertex="1">
          <mxGeometry x="41" y="659" width="50" height="30" as="geometry" />
        </mxCell>
        <mxCell id="a6dJDQt0KXZhfJ8KA_fV-160" style="edgeStyle=orthogonalEdgeStyle;rounded=0;orthogonalLoop=1;jettySize=auto;html=1;entryX=0.5;entryY=1;entryDx=0;entryDy=0;fontFamily=Go Mono;fontSize=10;" parent="1" source="a6dJDQt0KXZhfJ8KA_fV-139" target="a6dJDQt0KXZhfJ8KA_fV-148" edge="1">
          <mxGeometry relative="1" as="geometry" />
        </mxCell>
        <mxCell id="a6dJDQt0KXZhfJ8KA_fV-162" value="Output" style="text;html=1;align=center;verticalAlign=middle;resizable=0;points=[];autosize=1;strokeColor=none;fillColor=none;fontFamily=Go Mono;fontSize=10;" parent="1" vertex="1">
          <mxGeometry x="701" y="659" width="55" height="30" as="geometry" />
        </mxCell>
        <mxCell id="a6dJDQt0KXZhfJ8KA_fV-166" value="" style="edgeStyle=orthogonalEdgeStyle;rounded=0;orthogonalLoop=1;jettySize=auto;html=1;entryX=1;entryY=0.5;entryDx=0;entryDy=0;endArrow=none;endFill=0;startArrow=classic;startFill=1;fontFamily=Go Mono;fontSize=10;" parent="1" target="a6dJDQt0KXZhfJ8KA_fV-165" edge="1">
          <mxGeometry relative="1" as="geometry">
            <mxPoint x="640" y="674" as="targetPoint" />
            <mxPoint x="700" y="674" as="sourcePoint" />
          </mxGeometry>
        </mxCell>
        <mxCell id="a6dJDQt0KXZhfJ8KA_fV-165" value="" style="triangle;whiteSpace=wrap;html=1;rotation=0;fontFamily=Go Mono;fontSize=10;" parent="1" vertex="1">
          <mxGeometry x="660" y="664" width="20" height="20" as="geometry" />
        </mxCell>
        <mxCell id="a6dJDQt0KXZhfJ8KA_fV-168" value="&lt;font style=&quot;font-size: 10px;&quot;&gt;Normalize Gain&lt;/font&gt;" style="text;html=1;align=center;verticalAlign=middle;whiteSpace=wrap;rounded=0;fontSize=10;fontFamily=Go Mono;" parent="1" vertex="1">
          <mxGeometry x="640" y="689" width="60" height="31" as="geometry" />
        </mxCell>
        <mxCell id="a6dJDQt0KXZhfJ8KA_fV-171" value="&lt;div style=&quot;font-size: 10px;&quot;&gt;&lt;span style=&quot;background-color: initial; font-size: 10px;&quot;&gt;Normalize Gain is \(lerp(A, g_h, g_h)\) where&amp;nbsp;&lt;/span&gt;&lt;span style=&quot;background-color: initial; font-size: 10px;&quot;&gt;\(A = 1 / \sqrt{f_h/(2 - f_h)}\)&lt;/span&gt;&lt;span style=&quot;background-color: initial; font-size: 10px;&quot;&gt;.&lt;/span&gt;&lt;br style=&quot;font-size: 10px;&quot;&gt;&lt;/div&gt;&lt;div style=&quot;font-size: 10px;&quot;&gt;&lt;ul style=&quot;font-size: 10px;&quot;&gt;&lt;li style=&quot;font-size: 10px;&quot;&gt;&lt;span style=&quot;background-color: initial; font-size: 10px;&quot;&gt;\(g_h\) is high shelf gain.&lt;/span&gt;&lt;/li&gt;&lt;li style=&quot;font-size: 10px;&quot;&gt;\(f_h\) is high shelf cutoff frequency.&lt;/li&gt;&lt;li style=&quot;font-size: 10px;&quot;&gt;\(A\) is the inverse of EMA lowpass gain (*).&lt;/li&gt;&lt;/ul&gt;&lt;/div&gt;" style="text;html=1;align=left;verticalAlign=top;whiteSpace=wrap;rounded=0;fontFamily=Go Mono;fontSize=10;" parent="1" vertex="1">
          <mxGeometry x="50" y="769" width="480" height="100" as="geometry" />
        </mxCell>
        <mxCell id="o9pzM_4MEvlmnpsvlu2q-1" value="&lt;div style=&quot;font-size: 10px;&quot;&gt;N is number of allpass.&lt;/div&gt;&lt;div style=&quot;font-size: 10px;&quot;&gt;&lt;br style=&quot;font-size: 10px;&quot;&gt;&lt;/div&gt;&lt;span style=&quot;font-size: 10px;&quot;&gt;Sign \(n\) is \((-1)^n\).&lt;/span&gt;" style="text;html=1;align=left;verticalAlign=top;whiteSpace=wrap;rounded=0;fontFamily=Go Mono;fontSize=10;" vertex="1" parent="1">
          <mxGeometry x="50" y="709" width="150" height="60" as="geometry" />
        </mxCell>
        <mxCell id="o9pzM_4MEvlmnpsvlu2q-3" value="&lt;span style=&quot;background-color: initial; font-size: 10px;&quot;&gt;(*) Solution of&amp;nbsp;&lt;/span&gt;&lt;span style=&quot;background-color: initial; font-size: 10px;&quot;&gt;\(\displaystyle\int_0^\pi \left| \frac{k}{1 + (k - 1) e^{-j \omega}} \right|^2 d \omega.\)&lt;/span&gt;" style="text;html=1;align=left;verticalAlign=top;whiteSpace=wrap;rounded=0;fontFamily=Go Mono;fontSize=10;" vertex="1" parent="1">
          <mxGeometry x="380" y="809" width="260" height="60" as="geometry" />
        </mxCell>
        <mxCell id="o9pzM_4MEvlmnpsvlu2q-4" value="Allpass" style="text;html=1;align=left;verticalAlign=middle;resizable=0;points=[];autosize=1;strokeColor=none;fillColor=none;fontStyle=5;fontColor=#007CFF;fontFamily=Go Mono;fontSize=10;" vertex="1" parent="1">
          <mxGeometry x="40" y="869" width="65" height="30" as="geometry" />
        </mxCell>
        <mxCell id="o9pzM_4MEvlmnpsvlu2q-25" style="edgeStyle=orthogonalEdgeStyle;rounded=0;orthogonalLoop=1;jettySize=auto;html=1;exitDx=0;exitDy=0;entryX=0;entryY=0.5;entryDx=0;entryDy=0;fontFamily=Go Mono;fontSize=10;" edge="1" parent="1" source="o9pzM_4MEvlmnpsvlu2q-26" target="o9pzM_4MEvlmnpsvlu2q-14">
          <mxGeometry relative="1" as="geometry" />
        </mxCell>
        <mxCell id="o9pzM_4MEvlmnpsvlu2q-5" value="Delay" style="rounded=0;whiteSpace=wrap;html=1;fontFamily=Go Mono;fontSize=10;" vertex="1" parent="1">
          <mxGeometry x="410" y="929" width="60" height="30" as="geometry" />
        </mxCell>
        <mxCell id="o9pzM_4MEvlmnpsvlu2q-6" value="" style="group;fontFamily=Go Mono;fontSize=10;" vertex="1" connectable="0" parent="1">
          <mxGeometry x="340" y="934" width="20" height="20" as="geometry" />
        </mxCell>
        <mxCell id="o9pzM_4MEvlmnpsvlu2q-7" value="" style="ellipse;whiteSpace=wrap;html=1;aspect=fixed;fontFamily=Go Mono;fontSize=10;" vertex="1" parent="o9pzM_4MEvlmnpsvlu2q-6">
          <mxGeometry width="20" height="20" as="geometry" />
        </mxCell>
        <mxCell id="o9pzM_4MEvlmnpsvlu2q-8" value="" style="endArrow=none;html=1;rounded=0;fontFamily=Go Mono;fontSize=10;" edge="1" parent="o9pzM_4MEvlmnpsvlu2q-6">
          <mxGeometry width="50" height="50" relative="1" as="geometry">
            <mxPoint x="5" y="10" as="sourcePoint" />
            <mxPoint x="15" y="10" as="targetPoint" />
          </mxGeometry>
        </mxCell>
        <mxCell id="o9pzM_4MEvlmnpsvlu2q-9" value="" style="endArrow=none;html=1;rounded=0;fontFamily=Go Mono;fontSize=10;" edge="1" parent="o9pzM_4MEvlmnpsvlu2q-6">
          <mxGeometry width="50" height="50" relative="1" as="geometry">
            <mxPoint x="10" y="5" as="sourcePoint" />
            <mxPoint x="10" y="15" as="targetPoint" />
          </mxGeometry>
        </mxCell>
        <mxCell id="o9pzM_4MEvlmnpsvlu2q-11" style="edgeStyle=orthogonalEdgeStyle;rounded=0;orthogonalLoop=1;jettySize=auto;html=1;entryX=0;entryY=0.5;entryDx=0;entryDy=0;fontFamily=Go Mono;fontSize=10;" edge="1" parent="1" source="o9pzM_4MEvlmnpsvlu2q-18" target="o9pzM_4MEvlmnpsvlu2q-7">
          <mxGeometry relative="1" as="geometry" />
        </mxCell>
        <mxCell id="o9pzM_4MEvlmnpsvlu2q-10" value="Input" style="text;html=1;align=center;verticalAlign=middle;resizable=0;points=[];autosize=1;strokeColor=none;fillColor=none;fontFamily=Go Mono;fontSize=10;" vertex="1" parent="1">
          <mxGeometry x="41" y="929" width="50" height="30" as="geometry" />
        </mxCell>
        <mxCell id="o9pzM_4MEvlmnpsvlu2q-12" style="edgeStyle=orthogonalEdgeStyle;rounded=0;orthogonalLoop=1;jettySize=auto;html=1;exitDx=0;exitDy=0;entryX=0;entryY=0.5;entryDx=0;entryDy=0;fontFamily=Go Mono;fontSize=10;" edge="1" parent="1" source="o9pzM_4MEvlmnpsvlu2q-23" target="o9pzM_4MEvlmnpsvlu2q-5">
          <mxGeometry relative="1" as="geometry" />
        </mxCell>
        <mxCell id="o9pzM_4MEvlmnpsvlu2q-13" value="" style="group;fontFamily=Go Mono;fontSize=10;" vertex="1" connectable="0" parent="1">
          <mxGeometry x="520" y="934" width="20" height="20" as="geometry" />
        </mxCell>
        <mxCell id="o9pzM_4MEvlmnpsvlu2q-14" value="" style="ellipse;whiteSpace=wrap;html=1;aspect=fixed;fontFamily=Go Mono;fontSize=10;" vertex="1" parent="o9pzM_4MEvlmnpsvlu2q-13">
          <mxGeometry width="20" height="20" as="geometry" />
        </mxCell>
        <mxCell id="o9pzM_4MEvlmnpsvlu2q-15" value="" style="endArrow=none;html=1;rounded=0;fontFamily=Go Mono;fontSize=10;" edge="1" parent="o9pzM_4MEvlmnpsvlu2q-13">
          <mxGeometry width="50" height="50" relative="1" as="geometry">
            <mxPoint x="5" y="10" as="sourcePoint" />
            <mxPoint x="15" y="10" as="targetPoint" />
          </mxGeometry>
        </mxCell>
        <mxCell id="o9pzM_4MEvlmnpsvlu2q-16" value="" style="endArrow=none;html=1;rounded=0;fontFamily=Go Mono;fontSize=10;" edge="1" parent="o9pzM_4MEvlmnpsvlu2q-13">
          <mxGeometry width="50" height="50" relative="1" as="geometry">
            <mxPoint x="10" y="5" as="sourcePoint" />
            <mxPoint x="10" y="15" as="targetPoint" />
          </mxGeometry>
        </mxCell>
        <mxCell id="o9pzM_4MEvlmnpsvlu2q-19" value="" style="edgeStyle=orthogonalEdgeStyle;rounded=0;orthogonalLoop=1;jettySize=auto;html=1;entryX=0;entryY=0.5;entryDx=0;entryDy=0;fontFamily=Go Mono;fontSize=10;" edge="1" parent="1" source="o9pzM_4MEvlmnpsvlu2q-10" target="o9pzM_4MEvlmnpsvlu2q-17">
          <mxGeometry relative="1" as="geometry">
            <mxPoint x="90" y="944" as="sourcePoint" />
            <mxPoint x="270" y="944" as="targetPoint" />
          </mxGeometry>
        </mxCell>
        <mxCell id="o9pzM_4MEvlmnpsvlu2q-17" value="High Shelf" style="rounded=0;whiteSpace=wrap;html=1;fontFamily=Go Mono;fontSize=10;" vertex="1" parent="1">
          <mxGeometry x="120" y="929" width="80" height="30" as="geometry" />
        </mxCell>
        <mxCell id="o9pzM_4MEvlmnpsvlu2q-21" value="" style="edgeStyle=orthogonalEdgeStyle;rounded=0;orthogonalLoop=1;jettySize=auto;html=1;entryX=0;entryY=0.5;entryDx=0;entryDy=0;fontFamily=Go Mono;fontSize=10;" edge="1" parent="1" source="o9pzM_4MEvlmnpsvlu2q-17" target="o9pzM_4MEvlmnpsvlu2q-18">
          <mxGeometry relative="1" as="geometry">
            <mxPoint x="185" y="944" as="sourcePoint" />
            <mxPoint x="335" y="944" as="targetPoint" />
          </mxGeometry>
        </mxCell>
        <mxCell id="o9pzM_4MEvlmnpsvlu2q-18" value="Low Shelf" style="rounded=0;whiteSpace=wrap;html=1;fontFamily=Go Mono;fontSize=10;" vertex="1" parent="1">
          <mxGeometry x="230" y="929" width="75" height="30" as="geometry" />
        </mxCell>
        <mxCell id="o9pzM_4MEvlmnpsvlu2q-22" value="White Noise is normal distribution." style="text;html=1;align=left;verticalAlign=middle;whiteSpace=wrap;rounded=0;fontFamily=Go Mono;fontSize=10;" vertex="1" parent="1">
          <mxGeometry x="50" y="484" width="200" height="20" as="geometry" />
        </mxCell>
        <mxCell id="o9pzM_4MEvlmnpsvlu2q-24" value="" style="edgeStyle=orthogonalEdgeStyle;rounded=0;orthogonalLoop=1;jettySize=auto;html=1;exitX=1;exitY=0.5;exitDx=0;exitDy=0;entryDx=0;entryDy=0;endArrow=none;endFill=0;fontFamily=Go Mono;fontSize=10;" edge="1" parent="1" source="o9pzM_4MEvlmnpsvlu2q-7" target="o9pzM_4MEvlmnpsvlu2q-23">
          <mxGeometry relative="1" as="geometry">
            <mxPoint x="360" y="944" as="sourcePoint" />
            <mxPoint x="400" y="944" as="targetPoint" />
          </mxGeometry>
        </mxCell>
        <mxCell id="o9pzM_4MEvlmnpsvlu2q-29" style="edgeStyle=orthogonalEdgeStyle;rounded=0;orthogonalLoop=1;jettySize=auto;html=1;entryX=0;entryY=0.5;entryDx=0;entryDy=0;endArrow=none;endFill=0;fontFamily=Go Mono;fontSize=10;" edge="1" parent="1" source="o9pzM_4MEvlmnpsvlu2q-23" target="o9pzM_4MEvlmnpsvlu2q-28">
          <mxGeometry relative="1" as="geometry">
            <Array as="points">
              <mxPoint x="380" y="909" />
            </Array>
          </mxGeometry>
        </mxCell>
        <mxCell id="o9pzM_4MEvlmnpsvlu2q-23" value="" style="shape=waypoint;sketch=0;fillStyle=solid;size=6;pointerEvents=1;points=[];fillColor=none;resizable=0;rotatable=0;perimeter=centerPerimeter;snapToPoint=1;fontFamily=Go Mono;fontSize=10;" vertex="1" parent="1">
          <mxGeometry x="370" y="934" width="20" height="20" as="geometry" />
        </mxCell>
        <mxCell id="o9pzM_4MEvlmnpsvlu2q-27" value="" style="edgeStyle=orthogonalEdgeStyle;rounded=0;orthogonalLoop=1;jettySize=auto;html=1;exitX=1;exitY=0.5;exitDx=0;exitDy=0;entryDx=0;entryDy=0;endArrow=none;endFill=0;fontFamily=Go Mono;fontSize=10;" edge="1" parent="1" source="o9pzM_4MEvlmnpsvlu2q-5" target="o9pzM_4MEvlmnpsvlu2q-26">
          <mxGeometry relative="1" as="geometry">
            <mxPoint x="470" y="944" as="sourcePoint" />
            <mxPoint x="530" y="944" as="targetPoint" />
          </mxGeometry>
        </mxCell>
        <mxCell id="o9pzM_4MEvlmnpsvlu2q-33" style="edgeStyle=orthogonalEdgeStyle;rounded=0;orthogonalLoop=1;jettySize=auto;html=1;entryX=0;entryY=0.5;entryDx=0;entryDy=0;fontFamily=Go Mono;fontSize=10;" edge="1" parent="1" source="o9pzM_4MEvlmnpsvlu2q-26" target="o9pzM_4MEvlmnpsvlu2q-32">
          <mxGeometry relative="1" as="geometry">
            <Array as="points">
              <mxPoint x="490" y="979" />
            </Array>
          </mxGeometry>
        </mxCell>
        <mxCell id="o9pzM_4MEvlmnpsvlu2q-26" value="" style="shape=waypoint;sketch=0;fillStyle=solid;size=6;pointerEvents=1;points=[];fillColor=none;resizable=0;rotatable=0;perimeter=centerPerimeter;snapToPoint=1;fontFamily=Go Mono;fontSize=10;" vertex="1" parent="1">
          <mxGeometry x="480" y="934" width="20" height="20" as="geometry" />
        </mxCell>
        <mxCell id="o9pzM_4MEvlmnpsvlu2q-30" style="edgeStyle=orthogonalEdgeStyle;rounded=0;orthogonalLoop=1;jettySize=auto;html=1;exitX=1;exitY=0.5;exitDx=0;exitDy=0;entryX=0.5;entryY=0;entryDx=0;entryDy=0;fontFamily=Go Mono;fontSize=10;" edge="1" parent="1" source="o9pzM_4MEvlmnpsvlu2q-28" target="o9pzM_4MEvlmnpsvlu2q-14">
          <mxGeometry relative="1" as="geometry" />
        </mxCell>
        <mxCell id="o9pzM_4MEvlmnpsvlu2q-28" value="" style="triangle;whiteSpace=wrap;html=1;rotation=0;fontFamily=Go Mono;fontSize=10;" vertex="1" parent="1">
          <mxGeometry x="430" y="899" width="20" height="20" as="geometry" />
        </mxCell>
        <mxCell id="o9pzM_4MEvlmnpsvlu2q-34" style="edgeStyle=orthogonalEdgeStyle;rounded=0;orthogonalLoop=1;jettySize=auto;html=1;exitX=1;exitY=0.5;exitDx=0;exitDy=0;entryX=0.5;entryY=1;entryDx=0;entryDy=0;fontFamily=Go Mono;fontSize=10;" edge="1" parent="1" source="o9pzM_4MEvlmnpsvlu2q-32" target="o9pzM_4MEvlmnpsvlu2q-7">
          <mxGeometry relative="1" as="geometry" />
        </mxCell>
        <mxCell id="o9pzM_4MEvlmnpsvlu2q-32" value="" style="triangle;whiteSpace=wrap;html=1;rotation=-180;fontFamily=Go Mono;fontSize=10;" vertex="1" parent="1">
          <mxGeometry x="430" y="969" width="20" height="20" as="geometry" />
        </mxCell>
        <mxCell id="o9pzM_4MEvlmnpsvlu2q-37" style="edgeStyle=orthogonalEdgeStyle;rounded=0;orthogonalLoop=1;jettySize=auto;html=1;entryX=1;entryY=0.5;entryDx=0;entryDy=0;endArrow=none;endFill=0;startArrow=classic;startFill=1;fontFamily=Go Mono;fontSize=10;" edge="1" parent="1" source="o9pzM_4MEvlmnpsvlu2q-35" target="o9pzM_4MEvlmnpsvlu2q-14">
          <mxGeometry relative="1" as="geometry" />
        </mxCell>
        <mxCell id="o9pzM_4MEvlmnpsvlu2q-35" value="Output" style="text;html=1;align=center;verticalAlign=middle;resizable=0;points=[];autosize=1;strokeColor=none;fillColor=none;fontFamily=Go Mono;fontSize=10;" vertex="1" parent="1">
          <mxGeometry x="571" y="929" width="55" height="30" as="geometry" />
        </mxCell>
        <mxCell id="o9pzM_4MEvlmnpsvlu2q-38" value="&lt;font style=&quot;font-size: 10px;&quot;&gt;-g&lt;/font&gt;" style="text;html=1;align=center;verticalAlign=middle;whiteSpace=wrap;rounded=0;fontFamily=Go Mono;fontSize=10;" vertex="1" parent="1">
          <mxGeometry x="410" y="979" width="30" height="20" as="geometry" />
        </mxCell>
        <mxCell id="o9pzM_4MEvlmnpsvlu2q-39" value="&lt;font style=&quot;font-size: 10px;&quot;&gt;g&lt;/font&gt;" style="text;html=1;align=center;verticalAlign=middle;whiteSpace=wrap;rounded=0;fontFamily=Go Mono;fontSize=10;" vertex="1" parent="1">
          <mxGeometry x="430" y="884" width="30" height="20" as="geometry" />
        </mxCell>
        <mxCell id="o9pzM_4MEvlmnpsvlu2q-40" value="Spreader" style="text;html=1;align=left;verticalAlign=middle;resizable=0;points=[];autosize=1;strokeColor=none;fillColor=none;fontStyle=5;fontColor=#007CFF;fontFamily=Go Mono;fontSize=10;" vertex="1" parent="1">
          <mxGeometry x="40" y="1029" width="70" height="30" as="geometry" />
        </mxCell>
        <mxCell id="o9pzM_4MEvlmnpsvlu2q-43" style="edgeStyle=orthogonalEdgeStyle;rounded=0;orthogonalLoop=1;jettySize=auto;html=1;entryX=0;entryY=0.5;entryDx=0;entryDy=0;fontFamily=Go Mono;fontSize=10;" edge="1" parent="1" source="o9pzM_4MEvlmnpsvlu2q-41" target="o9pzM_4MEvlmnpsvlu2q-42">
          <mxGeometry relative="1" as="geometry" />
        </mxCell>
        <mxCell id="o9pzM_4MEvlmnpsvlu2q-41" value="Input" style="text;html=1;align=center;verticalAlign=middle;resizable=0;points=[];autosize=1;strokeColor=none;fillColor=none;fontFamily=Go Mono;fontSize=10;" vertex="1" parent="1">
          <mxGeometry x="41" y="1069" width="50" height="30" as="geometry" />
        </mxCell>
        <mxCell id="o9pzM_4MEvlmnpsvlu2q-45" style="edgeStyle=orthogonalEdgeStyle;rounded=0;orthogonalLoop=1;jettySize=auto;html=1;entryX=0;entryY=0.5;entryDx=0;entryDy=0;fontFamily=Go Mono;fontSize=10;" edge="1" parent="1" source="o9pzM_4MEvlmnpsvlu2q-52" target="o9pzM_4MEvlmnpsvlu2q-44">
          <mxGeometry relative="1" as="geometry" />
        </mxCell>
        <mxCell id="o9pzM_4MEvlmnpsvlu2q-56" style="edgeStyle=orthogonalEdgeStyle;rounded=0;orthogonalLoop=1;jettySize=auto;html=1;exitX=0.5;exitY=1;exitDx=0;exitDy=0;entryX=0;entryY=0.5;entryDx=0;entryDy=0;fontFamily=Go Mono;fontSize=10;" edge="1" parent="1" source="o9pzM_4MEvlmnpsvlu2q-42" target="o9pzM_4MEvlmnpsvlu2q-48">
          <mxGeometry relative="1" as="geometry">
            <mxPoint x="230" y="1154" as="targetPoint" />
            <Array as="points">
              <mxPoint x="170" y="1139" />
            </Array>
          </mxGeometry>
        </mxCell>
        <mxCell id="o9pzM_4MEvlmnpsvlu2q-42" value="2-band Splitter" style="rounded=0;whiteSpace=wrap;html=1;fontFamily=Go Mono;fontSize=10;" vertex="1" parent="1">
          <mxGeometry x="120" y="1069" width="100" height="30" as="geometry" />
        </mxCell>
        <mxCell id="o9pzM_4MEvlmnpsvlu2q-44" value="Delay" style="rounded=0;whiteSpace=wrap;html=1;fontFamily=Go Mono;fontSize=10;" vertex="1" parent="1">
          <mxGeometry x="280" y="1069" width="60" height="30" as="geometry" />
        </mxCell>
        <mxCell id="o9pzM_4MEvlmnpsvlu2q-46" value="&lt;font style=&quot;font-size: 8px;&quot;&gt;High&lt;/font&gt;" style="text;html=1;align=center;verticalAlign=middle;whiteSpace=wrap;rounded=0;fontFamily=Go Mono;fontSize=8;" vertex="1" parent="1">
          <mxGeometry x="220" y="1064" width="30" height="20" as="geometry" />
        </mxCell>
        <mxCell id="o9pzM_4MEvlmnpsvlu2q-47" value="" style="group;fontFamily=Go Mono;fontSize=10;" vertex="1" connectable="0" parent="1">
          <mxGeometry x="240" y="1129" width="20" height="20" as="geometry" />
        </mxCell>
        <mxCell id="o9pzM_4MEvlmnpsvlu2q-48" value="" style="ellipse;whiteSpace=wrap;html=1;aspect=fixed;fontFamily=Go Mono;fontSize=10;" vertex="1" parent="o9pzM_4MEvlmnpsvlu2q-47">
          <mxGeometry width="20" height="20" as="geometry" />
        </mxCell>
        <mxCell id="o9pzM_4MEvlmnpsvlu2q-49" value="" style="endArrow=none;html=1;rounded=0;fontFamily=Go Mono;fontSize=10;" edge="1" parent="o9pzM_4MEvlmnpsvlu2q-47">
          <mxGeometry width="50" height="50" relative="1" as="geometry">
            <mxPoint x="5" y="10" as="sourcePoint" />
            <mxPoint x="15" y="10" as="targetPoint" />
          </mxGeometry>
        </mxCell>
        <mxCell id="o9pzM_4MEvlmnpsvlu2q-50" value="" style="endArrow=none;html=1;rounded=0;fontFamily=Go Mono;fontSize=10;" edge="1" parent="o9pzM_4MEvlmnpsvlu2q-47">
          <mxGeometry width="50" height="50" relative="1" as="geometry">
            <mxPoint x="10" y="5" as="sourcePoint" />
            <mxPoint x="10" y="15" as="targetPoint" />
          </mxGeometry>
        </mxCell>
        <mxCell id="o9pzM_4MEvlmnpsvlu2q-53" value="" style="edgeStyle=orthogonalEdgeStyle;rounded=0;orthogonalLoop=1;jettySize=auto;html=1;entryDx=0;entryDy=0;endArrow=none;endFill=0;fontFamily=Go Mono;fontSize=10;" edge="1" parent="1" source="o9pzM_4MEvlmnpsvlu2q-42" target="o9pzM_4MEvlmnpsvlu2q-52">
          <mxGeometry relative="1" as="geometry">
            <mxPoint x="220" y="1084" as="sourcePoint" />
            <mxPoint x="280" y="1084" as="targetPoint" />
          </mxGeometry>
        </mxCell>
        <mxCell id="o9pzM_4MEvlmnpsvlu2q-54" style="edgeStyle=orthogonalEdgeStyle;rounded=0;orthogonalLoop=1;jettySize=auto;html=1;entryX=0.5;entryY=0;entryDx=0;entryDy=0;fontFamily=Go Mono;fontSize=10;" edge="1" parent="1" source="o9pzM_4MEvlmnpsvlu2q-52" target="o9pzM_4MEvlmnpsvlu2q-48">
          <mxGeometry relative="1" as="geometry" />
        </mxCell>
        <mxCell id="o9pzM_4MEvlmnpsvlu2q-52" value="" style="shape=waypoint;sketch=0;fillStyle=solid;size=6;pointerEvents=1;points=[];fillColor=none;resizable=0;rotatable=0;perimeter=centerPerimeter;snapToPoint=1;fontFamily=Go Mono;fontSize=10;" vertex="1" parent="1">
          <mxGeometry x="240" y="1074" width="20" height="20" as="geometry" />
        </mxCell>
        <mxCell id="o9pzM_4MEvlmnpsvlu2q-57" value="&lt;font style=&quot;font-size: 8px;&quot;&gt;Low&lt;/font&gt;" style="text;html=1;align=center;verticalAlign=middle;whiteSpace=wrap;rounded=0;fontFamily=Go Mono;fontSize=8;" vertex="1" parent="1">
          <mxGeometry x="140" y="1099" width="30" height="20" as="geometry" />
        </mxCell>
        <mxCell id="o9pzM_4MEvlmnpsvlu2q-59" value="" style="shape=waypoint;sketch=0;fillStyle=solid;size=6;pointerEvents=1;points=[];fillColor=none;resizable=0;rotatable=0;perimeter=centerPerimeter;snapToPoint=1;fontFamily=Go Mono;fontSize=10;" vertex="1" parent="1">
          <mxGeometry x="360" y="1129" width="20" height="20" as="geometry" />
        </mxCell>
        <mxCell id="o9pzM_4MEvlmnpsvlu2q-60" value="" style="shape=waypoint;sketch=0;fillStyle=solid;size=6;pointerEvents=1;points=[];fillColor=none;resizable=0;rotatable=0;perimeter=centerPerimeter;snapToPoint=1;fontFamily=Go Mono;fontSize=10;" vertex="1" parent="1">
          <mxGeometry x="360" y="1074" width="20" height="20" as="geometry" />
        </mxCell>
        <mxCell id="o9pzM_4MEvlmnpsvlu2q-61" style="edgeStyle=orthogonalEdgeStyle;rounded=0;orthogonalLoop=1;jettySize=auto;html=1;endArrow=none;endFill=0;fontFamily=Go Mono;fontSize=10;" edge="1" parent="1" source="o9pzM_4MEvlmnpsvlu2q-48" target="o9pzM_4MEvlmnpsvlu2q-59">
          <mxGeometry relative="1" as="geometry" />
        </mxCell>
        <mxCell id="o9pzM_4MEvlmnpsvlu2q-62" style="edgeStyle=orthogonalEdgeStyle;rounded=0;orthogonalLoop=1;jettySize=auto;html=1;entryX=0.4;entryY=0.484;entryDx=0;entryDy=0;entryPerimeter=0;endArrow=none;endFill=0;fontFamily=Go Mono;fontSize=10;" edge="1" parent="1" source="o9pzM_4MEvlmnpsvlu2q-44" target="o9pzM_4MEvlmnpsvlu2q-60">
          <mxGeometry relative="1" as="geometry" />
        </mxCell>
        <mxCell id="o9pzM_4MEvlmnpsvlu2q-63" value="" style="group;fontFamily=Go Mono;fontSize=10;" vertex="1" connectable="0" parent="1">
          <mxGeometry x="410" y="1074" width="20" height="20" as="geometry" />
        </mxCell>
        <mxCell id="o9pzM_4MEvlmnpsvlu2q-64" value="" style="ellipse;whiteSpace=wrap;html=1;aspect=fixed;fontFamily=Go Mono;fontSize=10;" vertex="1" parent="o9pzM_4MEvlmnpsvlu2q-63">
          <mxGeometry width="20" height="20" as="geometry" />
        </mxCell>
        <mxCell id="o9pzM_4MEvlmnpsvlu2q-65" value="" style="endArrow=none;html=1;rounded=0;fontFamily=Go Mono;fontSize=10;" edge="1" parent="o9pzM_4MEvlmnpsvlu2q-63">
          <mxGeometry width="50" height="50" relative="1" as="geometry">
            <mxPoint x="5" y="10" as="sourcePoint" />
            <mxPoint x="15" y="10" as="targetPoint" />
          </mxGeometry>
        </mxCell>
        <mxCell id="o9pzM_4MEvlmnpsvlu2q-66" value="" style="endArrow=none;html=1;rounded=0;fontFamily=Go Mono;fontSize=10;" edge="1" parent="o9pzM_4MEvlmnpsvlu2q-63">
          <mxGeometry width="50" height="50" relative="1" as="geometry">
            <mxPoint x="10" y="5" as="sourcePoint" />
            <mxPoint x="10" y="15" as="targetPoint" />
          </mxGeometry>
        </mxCell>
        <mxCell id="o9pzM_4MEvlmnpsvlu2q-70" value="" style="group;fontFamily=Go Mono;fontSize=10;" vertex="1" connectable="0" parent="1">
          <mxGeometry x="410" y="1129" width="20" height="20" as="geometry" />
        </mxCell>
        <mxCell id="o9pzM_4MEvlmnpsvlu2q-71" value="" style="ellipse;whiteSpace=wrap;html=1;aspect=fixed;fontFamily=Go Mono;fontSize=10;" vertex="1" parent="o9pzM_4MEvlmnpsvlu2q-70">
          <mxGeometry width="20" height="20" as="geometry" />
        </mxCell>
        <mxCell id="o9pzM_4MEvlmnpsvlu2q-72" value="" style="endArrow=none;html=1;rounded=0;fontFamily=Go Mono;fontSize=10;" edge="1" parent="o9pzM_4MEvlmnpsvlu2q-70">
          <mxGeometry width="50" height="50" relative="1" as="geometry">
            <mxPoint x="5" y="10" as="sourcePoint" />
            <mxPoint x="15" y="10" as="targetPoint" />
          </mxGeometry>
        </mxCell>
        <mxCell id="o9pzM_4MEvlmnpsvlu2q-73" value="" style="endArrow=none;html=1;rounded=0;fontFamily=Go Mono;fontSize=10;" edge="1" parent="o9pzM_4MEvlmnpsvlu2q-70">
          <mxGeometry width="50" height="50" relative="1" as="geometry">
            <mxPoint x="10" y="5" as="sourcePoint" />
            <mxPoint x="10" y="15" as="targetPoint" />
          </mxGeometry>
        </mxCell>
        <mxCell id="o9pzM_4MEvlmnpsvlu2q-76" value="&lt;font style=&quot;font-size: 8px;&quot;&gt;L&lt;/font&gt;" style="text;html=1;align=center;verticalAlign=middle;whiteSpace=wrap;rounded=0;fontFamily=Go Mono;fontSize=8;" vertex="1" parent="1">
          <mxGeometry x="365" y="1064" width="30" height="20" as="geometry" />
        </mxCell>
        <mxCell id="o9pzM_4MEvlmnpsvlu2q-77" value="&lt;font style=&quot;font-size: 8px;&quot;&gt;R&lt;/font&gt;" style="text;html=1;align=center;verticalAlign=middle;whiteSpace=wrap;rounded=0;fontFamily=Go Mono;fontSize=8;" vertex="1" parent="1">
          <mxGeometry x="350" y="1084" width="30" height="20" as="geometry" />
        </mxCell>
        <mxCell id="o9pzM_4MEvlmnpsvlu2q-78" value="&lt;font style=&quot;font-size: 8px;&quot;&gt;L&lt;/font&gt;" style="text;html=1;align=center;verticalAlign=middle;whiteSpace=wrap;rounded=0;fontFamily=Go Mono;fontSize=8;" vertex="1" parent="1">
          <mxGeometry x="350" y="1119" width="30" height="20" as="geometry" />
        </mxCell>
        <mxCell id="o9pzM_4MEvlmnpsvlu2q-79" value="&lt;font style=&quot;font-size: 8px;&quot;&gt;R&lt;/font&gt;" style="text;html=1;align=center;verticalAlign=middle;whiteSpace=wrap;rounded=0;fontFamily=Go Mono;fontSize=8;" vertex="1" parent="1">
          <mxGeometry x="430" y="1139" width="30" height="20" as="geometry" />
        </mxCell>
        <mxCell id="o9pzM_4MEvlmnpsvlu2q-80" value="&lt;font style=&quot;font-size: 8px;&quot;&gt;+&lt;/font&gt;" style="text;html=1;align=center;verticalAlign=bottom;whiteSpace=wrap;rounded=0;fontFamily=Go Mono;fontSize=8;" vertex="1" parent="1">
          <mxGeometry x="405" y="1094" width="20" height="15" as="geometry" />
        </mxCell>
        <mxCell id="o9pzM_4MEvlmnpsvlu2q-81" value="&lt;font style=&quot;font-size: 8px;&quot;&gt;+&lt;/font&gt;" style="text;html=1;align=center;verticalAlign=bottom;whiteSpace=wrap;rounded=0;fontFamily=Go Mono;fontSize=8;" vertex="1" parent="1">
          <mxGeometry x="400" y="1144" width="15" height="15" as="geometry" />
        </mxCell>
        <mxCell id="o9pzM_4MEvlmnpsvlu2q-82" value="&lt;font style=&quot;font-size: 8px;&quot;&gt;-&lt;/font&gt;" style="text;html=1;align=center;verticalAlign=bottom;whiteSpace=wrap;rounded=0;fontFamily=Go Mono;fontSize=8;" vertex="1" parent="1">
          <mxGeometry x="405" y="1114" width="20" height="15" as="geometry" />
        </mxCell>
        <mxCell id="o9pzM_4MEvlmnpsvlu2q-84" value="&lt;font style=&quot;font-size: 8px;&quot;&gt;+&lt;/font&gt;" style="text;html=1;align=center;verticalAlign=bottom;whiteSpace=wrap;rounded=0;fontFamily=Go Mono;fontSize=8;" vertex="1" parent="1">
          <mxGeometry x="395" y="1069" width="15" height="15" as="geometry" />
        </mxCell>
        <mxCell id="o9pzM_4MEvlmnpsvlu2q-85" value="" style="shape=waypoint;sketch=0;fillStyle=solid;size=6;pointerEvents=1;points=[];fillColor=none;resizable=0;rotatable=0;perimeter=centerPerimeter;snapToPoint=1;fontFamily=Go Mono;fontSize=10;" vertex="1" parent="1">
          <mxGeometry x="440" y="1099" width="20" height="20" as="geometry" />
        </mxCell>
        <mxCell id="o9pzM_4MEvlmnpsvlu2q-90" style="edgeStyle=orthogonalEdgeStyle;rounded=0;orthogonalLoop=1;jettySize=auto;html=1;endArrow=none;endFill=0;startArrow=classic;startFill=1;fontFamily=Go Mono;fontSize=10;" edge="1" parent="1" source="o9pzM_4MEvlmnpsvlu2q-88" target="o9pzM_4MEvlmnpsvlu2q-85">
          <mxGeometry relative="1" as="geometry" />
        </mxCell>
        <mxCell id="o9pzM_4MEvlmnpsvlu2q-88" value="Output" style="text;html=1;align=center;verticalAlign=middle;resizable=0;points=[];autosize=1;strokeColor=none;fillColor=none;fontFamily=Go Mono;fontSize=10;" vertex="1" parent="1">
          <mxGeometry x="491" y="1094" width="55" height="30" as="geometry" />
        </mxCell>
        <mxCell id="o9pzM_4MEvlmnpsvlu2q-91" value="&lt;font style=&quot;font-size: 8px;&quot;&gt;L&lt;/font&gt;" style="text;html=1;align=center;verticalAlign=middle;whiteSpace=wrap;rounded=0;fontFamily=Go Mono;fontSize=8;" vertex="1" parent="1">
          <mxGeometry x="430" y="1064" width="30" height="20" as="geometry" />
        </mxCell>
        <mxCell id="o9pzM_4MEvlmnpsvlu2q-92" value="&lt;font style=&quot;font-size: 8px;&quot;&gt;R&lt;/font&gt;" style="text;html=1;align=center;verticalAlign=middle;whiteSpace=wrap;rounded=0;fontFamily=Go Mono;fontSize=8;" vertex="1" parent="1">
          <mxGeometry x="370" y="1139" width="30" height="20" as="geometry" />
        </mxCell>
      </root>
    </mxGraphModel>
  </diagram>
</mxfile>
